<svg xmlns="http://www.w3.org/2000/svg" width="1000" height="552" viewBox="0 0 1000 552">
<defs>
 <pattern id="d" width="22" height="22" patternUnits="userSpaceOnUse"><circle cx="11" cy="11" r="1.5" fill="#ffffff14"/></pattern>
 <linearGradient id="g" x1="0" x2="1"><stop offset="0" stop-color="#7b5cff"/><stop offset=".5" stop-color="#3aa0ff"/><stop offset="1" stop-color="#8b5cf6"/></linearGradient>
</defs>
<style>
 text{font-family:Poppins,'Segoe UI',Arial,sans-serif}
 .c{opacity:0;animation:in .6s ease-out forwards}
 @keyframes in{from{opacity:0;transform:translateY(10px)}to{opacity:1;transform:translateY(0)}}
 .p{animation:pl 1.6s ease-in-out infinite}
 @keyframes pl{0%,100%{opacity:1}50%{opacity:.25}}
 .bar{animation:grow 1.4s ease-out forwards;transform:scaleX(0)}
 @keyframes grow{to{transform:scaleX(1)}}
</style>
<rect width="1000" height="552" rx="18" fill="#141d18"/>
<rect width="1000" height="552" rx="18" fill="url(#d)"/>
<rect x="30" y="28" width="148" height="28" rx="14" fill="#6d5efc" opacity=".12"/>
<circle cx="46" cy="42" r="4" fill="#d6f36b" stroke="#4f8b45" class="p"/>
<text x="58" y="47" font-size="12.5" font-weight="600" fill="#6d5efc" letter-spacing="1.5">CURRENTLY LEARNING</text>
<text x="30" y="82" font-size="13.5" fill="#94a099">Skills I'm levelling up next — as a designer who also builds what I design.</text>
<rect x="810" y="38" width="160" height="4" rx="2" fill="url(#g)"/>
<g transform="translate(0,12)"><g class="c" style="animation-delay:0.00s">
 <rect x="30" y="96" width="470" height="92" rx="16" fill="#1c2a24" stroke="#28352d"/>
 <rect x="48" y="114" width="56" height="56" rx="14" fill="#E87D0D"/>
 <text x="76" y="148" text-anchor="middle" font-size="18" font-weight="800" fill="#fff">3D</text>
 <text x="122" y="136" font-size="17" font-weight="700" fill="#eef1ea">Blender</text>
 <text x="122" y="160" font-size="13" fill="#94a099">3D assets and mockups for UI presentations</text>
 <rect x="392" y="118" width="88" height="22" rx="11" fill="#ffffff0f"/>
 <circle cx="405" cy="129" r="3.5" fill="#E87D0D" class="p" style="animation-delay:0.0s"/>
 <text x="414" y="133" font-size="10.5" font-weight="600" fill="#94a099">in progress</text>
</g></g>
<g transform="translate(0,12)"><g class="c" style="animation-delay:0.12s">
 <rect x="520" y="96" width="470" height="92" rx="16" fill="#1c2a24" stroke="#28352d"/>
 <rect x="538" y="114" width="56" height="56" rx="14" fill="#ED8B00"/>
 <text x="566" y="148" text-anchor="middle" font-size="18" font-weight="800" fill="#fff">Jv</text>
 <text x="612" y="136" font-size="17" font-weight="700" fill="#eef1ea">Java</text>
 <text x="612" y="160" font-size="13" fill="#94a099">Stronger backend work with Spring Boot</text>
 <rect x="882" y="118" width="88" height="22" rx="11" fill="#ffffff0f"/>
 <circle cx="895" cy="129" r="3.5" fill="#ED8B00" class="p" style="animation-delay:0.2s"/>
 <text x="904" y="133" font-size="10.5" font-weight="600" fill="#94a099">in progress</text>
</g></g>
<g transform="translate(0,12)"><g class="c" style="animation-delay:0.24s">
 <rect x="30" y="204" width="470" height="92" rx="16" fill="#1c2a24" stroke="#28352d"/>
 <rect x="48" y="222" width="56" height="56" rx="14" fill="#3776AB"/>
 <text x="76" y="256" text-anchor="middle" font-size="18" font-weight="800" fill="#fff">Py</text>
 <text x="122" y="244" font-size="17" font-weight="700" fill="#eef1ea">Python</text>
 <text x="122" y="268" font-size="13" fill="#94a099">Automation, scripting and data handling</text>
 <rect x="392" y="226" width="88" height="22" rx="11" fill="#ffffff0f"/>
 <circle cx="405" cy="237" r="3.5" fill="#3776AB" class="p" style="animation-delay:0.4s"/>
 <text x="414" y="241" font-size="10.5" font-weight="600" fill="#94a099">in progress</text>
</g></g>
<g transform="translate(0,12)"><g class="c" style="animation-delay:0.36s">
 <rect x="520" y="204" width="470" height="92" rx="16" fill="#1c2a24" stroke="#28352d"/>
 <rect x="538" y="222" width="56" height="56" rx="14" fill="#2496ED"/>
 <text x="566" y="256" text-anchor="middle" font-size="18" font-weight="800" fill="#fff">Dk</text>
 <text x="612" y="244" font-size="17" font-weight="700" fill="#eef1ea">Docker</text>
 <text x="612" y="268" font-size="13" fill="#94a099">Containerise and deploy my own projects</text>
 <rect x="882" y="226" width="88" height="22" rx="11" fill="#ffffff0f"/>
 <circle cx="895" cy="237" r="3.5" fill="#2496ED" class="p" style="animation-delay:0.6s"/>
 <text x="904" y="241" font-size="10.5" font-weight="600" fill="#94a099">in progress</text>
</g></g>
<g transform="translate(0,12)"><g class="c" style="animation-delay:0.48s">
 <rect x="30" y="312" width="470" height="92" rx="16" fill="#1c2a24" stroke="#28352d"/>
 <rect x="48" y="330" width="56" height="56" rx="14" fill="#111111"/>
 <text x="76" y="364" text-anchor="middle" font-size="18" font-weight="800" fill="#fff">N</text>
 <text x="122" y="352" font-size="17" font-weight="700" fill="#eef1ea">Next.js</text>
 <text x="122" y="376" font-size="13" fill="#94a099">Production React apps with routing and SSR</text>
 <rect x="392" y="334" width="88" height="22" rx="11" fill="#ffffff0f"/>
 <circle cx="405" cy="345" r="3.5" fill="#eef1ea" class="p" style="animation-delay:0.8s"/>
 <text x="414" y="349" font-size="10.5" font-weight="600" fill="#94a099">in progress</text>
</g></g>
<g transform="translate(0,12)"><g class="c" style="animation-delay:0.60s">
 <rect x="520" y="312" width="470" height="92" rx="16" fill="#1c2a24" stroke="#28352d"/>
 <rect x="538" y="330" width="56" height="56" rx="14" fill="#06B6D4"/>
 <text x="566" y="364" text-anchor="middle" font-size="18" font-weight="800" fill="#fff">Tw</text>
 <text x="612" y="352" font-size="17" font-weight="700" fill="#eef1ea">Tailwind CSS</text>
 <text x="612" y="376" font-size="13" fill="#94a099">Turn Figma designs into code faster</text>
 <rect x="882" y="334" width="88" height="22" rx="11" fill="#ffffff0f"/>
 <circle cx="895" cy="345" r="3.5" fill="#06B6D4" class="p" style="animation-delay:1.0s"/>
 <text x="904" y="349" font-size="10.5" font-weight="600" fill="#94a099">in progress</text>
</g></g>
<g transform="translate(0,12)"><g class="c" style="animation-delay:0.72s">
 <rect x="30" y="420" width="470" height="92" rx="16" fill="#1c2a24" stroke="#28352d"/>
 <rect x="48" y="438" width="56" height="56" rx="14" fill="#0055FF"/>
 <text x="76" y="472" text-anchor="middle" font-size="18" font-weight="800" fill="#fff">Fr</text>
 <text x="122" y="460" font-size="17" font-weight="700" fill="#eef1ea">Framer</text>
 <text x="122" y="484" font-size="13" fill="#94a099">High-fidelity, interactive prototypes</text>
 <rect x="392" y="442" width="88" height="22" rx="11" fill="#ffffff0f"/>
 <circle cx="405" cy="453" r="3.5" fill="#0055FF" class="p" style="animation-delay:1.2s"/>
 <text x="414" y="457" font-size="10.5" font-weight="600" fill="#94a099">in progress</text>
</g></g>
<g transform="translate(0,12)"><g class="c" style="animation-delay:0.84s">
 <rect x="520" y="420" width="470" height="92" rx="16" fill="#1c2a24" stroke="#28352d"/>
 <rect x="538" y="438" width="56" height="56" rx="14" fill="#6d5efc"/>
 <text x="566" y="472" text-anchor="middle" font-size="14" font-weight="800" fill="#fff">A11y</text>
 <text x="612" y="460" font-size="17" font-weight="700" fill="#eef1ea">Accessibility</text>
 <text x="612" y="484" font-size="13" fill="#94a099">WCAG — designs that work for everyone</text>
 <rect x="882" y="442" width="88" height="22" rx="11" fill="#ffffff0f"/>
 <circle cx="895" cy="453" r="3.5" fill="#6d5efc" class="p" style="animation-delay:1.4s"/>
 <text x="904" y="457" font-size="10.5" font-weight="600" fill="#94a099">in progress</text>
</g></g>
</svg>